<svg width="20" height="20" viewBox="0 0 20 20" fill="none" xmlns="http://www.w3.org/2000/svg">
<path d="M10 20C15.5228 20 20 15.5228 20 10C20 4.47715 15.5228 0 10 0C4.47715 0 0 4.47715 0 10C0 15.5228 4.47715 20 10 20Z" fill="#E84142"/>
<path fill-rule="evenodd" clip-rule="evenodd" d="M7.19878 14.2187H5.30628C4.90878 14.2187 4.71253 14.2188 4.59253 14.1419C4.52931 14.1006 4.47668 14.0451 4.43889 13.9797C4.40111 13.9143 4.37923 13.841 4.37503 13.7656C4.36753 13.6244 4.46566 13.4512 4.66253 13.1062L9.33253 4.86062C9.53128 4.51062 9.63253 4.33562 9.75878 4.27062C9.82636 4.23626 9.9011 4.21835 9.97691 4.21835C10.0527 4.21835 10.1275 4.23626 10.195 4.27062C10.3219 4.33562 10.4225 4.51062 10.6213 4.86062L11.5813 6.53937L11.5863 6.54812C11.8007 6.92312 11.9094 7.11437 11.9569 7.31437C12.01 7.53328 12.01 7.76172 11.9569 7.98062C11.9094 8.1825 11.8013 8.37437 11.5838 8.75562L9.13003 13.0994L9.12378 13.11C8.90753 13.4887 8.79878 13.6806 8.64628 13.8256C8.48216 13.9828 8.28288 14.0985 8.06503 14.1631C7.86566 14.2187 7.64378 14.2187 7.19878 14.2187ZM11.9757 14.2187H14.6857C15.0857 14.2187 15.2869 14.2187 15.4069 14.14C15.4706 14.0985 15.5236 14.0425 15.5614 13.9765C15.5992 13.9106 15.6208 13.8366 15.6244 13.7606C15.6313 13.6237 15.5357 13.4581 15.3475 13.1325L15.3275 13.0987L13.97 10.7725L13.9544 10.7462C13.7638 10.4231 13.6669 10.26 13.5438 10.1969C13.4767 10.1626 13.4025 10.1448 13.3272 10.1448C13.2519 10.1448 13.1777 10.1626 13.1107 10.1969C12.9857 10.2619 12.8857 10.4325 12.6869 10.775L11.3338 13.1012L11.3294 13.1094C11.1313 13.4519 11.0319 13.6225 11.0394 13.7631C11.0436 13.8389 11.0654 13.9126 11.1032 13.9783C11.1409 14.0441 11.1936 14.1001 11.2569 14.1419C11.3744 14.2188 11.5757 14.2187 11.9757 14.2187Z" fill="white"/>
</svg>
