<svg width="21" height="16" viewBox="0 0 21 16" fill="none" xmlns="http://www.w3.org/2000/svg">
<path d="M17.7682 1.30763C16.4382 0.698078 14.9982 0.255663 13.4982 4.52229e-05C13.485 -0.000368291 13.4719 0.00205819 13.4598 0.00715411C13.4477 0.01225 13.4369 0.0198916 13.4282 0.0295398C13.2482 0.353978 13.0382 0.77673 12.8982 1.10117C11.3072 0.865213 9.68916 0.865213 8.09816 1.10117C7.95816 0.766898 7.74816 0.353978 7.55816 0.0295398C7.54816 0.00987688 7.51816 4.52229e-05 7.48816 4.52229e-05C5.98816 0.255663 4.55816 0.698078 3.21816 1.30763C3.20816 1.30763 3.19816 1.31746 3.18816 1.32729C0.468164 5.32869 -0.281836 9.22194 0.0881641 13.0759C0.0881641 13.0955 0.0981641 13.1152 0.118164 13.125C1.91816 14.4228 3.64816 15.2093 5.35816 15.7304C5.38816 15.7402 5.41816 15.7304 5.42816 15.7107C5.82816 15.17 6.18816 14.5997 6.49816 14C6.51816 13.9607 6.49816 13.9214 6.45816 13.9115C5.88816 13.6953 5.34816 13.4396 4.81816 13.1447C4.77816 13.125 4.77816 13.066 4.80816 13.0365C4.91816 12.9579 5.02816 12.8694 5.13816 12.7908C5.15816 12.7711 5.18816 12.7711 5.20816 12.7809C8.64816 14.3245 12.3582 14.3245 15.7582 12.7809C15.7782 12.7711 15.8082 12.7711 15.8282 12.7908C15.9382 12.8792 16.0482 12.9579 16.1582 13.0464C16.1982 13.0759 16.1982 13.1349 16.1482 13.1545C15.6282 13.4593 15.0782 13.7051 14.5082 13.9214C14.4682 13.9312 14.4582 13.9804 14.4682 14.0099C14.7882 14.6096 15.1482 15.1798 15.5382 15.7205C15.5682 15.7304 15.5982 15.7402 15.6282 15.7304C17.3482 15.2093 19.0782 14.4228 20.8782 13.125C20.8982 13.1152 20.9082 13.0955 20.9082 13.0759C21.3482 8.62223 20.1782 4.75847 17.8082 1.32729C17.7982 1.31746 17.7882 1.30763 17.7682 1.30763ZM7.01816 10.7262C5.98816 10.7262 5.12816 9.79217 5.12816 8.64189C5.12816 7.49161 5.96816 6.55762 7.01816 6.55762C8.07817 6.55762 8.91816 7.50144 8.90816 8.64189C8.90816 9.79217 8.06816 10.7262 7.01816 10.7262ZM13.9882 10.7262C12.9582 10.7262 12.0982 9.79217 12.0982 8.64189C12.0982 7.49161 12.9382 6.55762 13.9882 6.55762C15.0482 6.55762 15.8882 7.50144 15.8782 8.64189C15.8782 9.79217 15.0482 10.7262 13.9882 10.7262Z" fill="#676B73"/>
</svg>
