<svg width="20" height="20" viewBox="0 0 20 20" fill="none" xmlns="http://www.w3.org/2000/svg">
<path d="M10 20C15.5228 20 20 15.5228 20 10C20 4.47715 15.5228 0 10 0C4.47715 0 0 4.47715 0 10C0 15.5228 4.47715 20 10 20Z" fill="#6F41D8"/>
<path d="M13.1379 8.24562C12.9073 8.11125 12.6079 8.11125 12.3542 8.24562L10.5548 9.27937L9.33292 9.95312L7.53354 10.9862C7.30292 11.1212 7.00355 11.1212 6.7498 10.9862L5.3198 10.1775C5.08917 10.0431 4.92792 9.79625 4.92792 9.52625V7.93125C4.92792 7.66187 5.06605 7.415 5.3198 7.28L6.72605 6.49375C6.9573 6.35875 7.25729 6.35875 7.51104 6.49375L8.9173 7.28C9.14855 7.415 9.3098 7.66187 9.3098 7.93125V8.965L10.5317 8.26812V7.235C10.533 7.10081 10.4971 6.96889 10.4279 6.85391C10.3587 6.73892 10.259 6.6454 10.1398 6.58375L7.53354 5.10125C7.30292 4.96625 7.00355 4.96625 6.7498 5.10125L4.09729 6.58375C3.9781 6.6454 3.87836 6.73892 3.80918 6.85391C3.73999 6.96889 3.70407 7.10081 3.70542 7.235V10.2225C3.70542 10.4925 3.84354 10.7394 4.09729 10.8744L6.7498 12.3569C6.98042 12.4912 7.28042 12.4912 7.53354 12.3569L9.33292 11.3456L10.5548 10.6494L12.3542 9.63875C12.5848 9.50375 12.8842 9.50375 13.1379 9.63875L14.5448 10.425C14.776 10.5594 14.9367 10.8062 14.9367 11.0762V12.6712C14.9367 12.9406 14.7992 13.1875 14.5448 13.3225L13.1385 14.1312C12.9073 14.2662 12.6073 14.2662 12.3542 14.1312L10.9473 13.345C10.716 13.21 10.5548 12.9631 10.5548 12.6937V11.66L9.33292 12.3569V13.39C9.33292 13.6594 9.47104 13.9069 9.72479 14.0412L12.3773 15.5237C12.6079 15.6587 12.9073 15.6587 13.161 15.5237L15.8135 14.0412C16.0442 13.9069 16.2054 13.66 16.2054 13.39V10.4025C16.2068 10.2683 16.1709 10.1364 16.1017 10.0214C16.0325 9.90642 15.9327 9.8129 15.8135 9.75125L13.1385 8.24562H13.1379Z" fill="white"/>
</svg>
