<svg width="21" height="17" viewBox="0 0 21 17" fill="none" xmlns="http://www.w3.org/2000/svg">
<path d="M20.92 1.96629C20.15 2.31039 19.32 2.53651 18.46 2.64466C19.34 2.12359 20.02 1.29775 20.34 0.304775C19.51 0.796347 18.59 1.14045 17.62 1.33708C16.83 0.491573 15.72 0 14.46 0C12.11 0 10.19 1.88764 10.19 4.21769C10.19 4.55196 10.23 4.8764 10.3 5.18118C6.74 5.00421 3.57 3.32303 1.46 0.776685C1.09 1.39607 0.88 2.12359 0.88 2.89045C0.88 4.35533 1.63 5.65308 2.79 6.39044C2.08 6.39044 1.42 6.19381 0.84 5.89887V5.92836C0.84 7.97331 2.32 9.68398 4.28 10.0674C3.65084 10.2374 2.99004 10.261 2.35 10.1362C2.62161 10.9743 3.15354 11.7077 3.87102 12.2332C4.5885 12.7587 5.45545 13.05 6.35 13.066C4.83367 14.2463 2.95401 14.8842 1.02 14.875C0.68 14.875 0.34 14.8553 0 14.816C1.9 16.0154 4.16 16.7135 6.58 16.7135C14.46 16.7135 18.79 10.2837 18.79 4.70927C18.79 4.52247 18.79 4.3455 18.78 4.1587C19.62 3.56882 20.34 2.82163 20.92 1.96629Z" fill="#676B73"/>
</svg>
